<?xml version="1.0" standalone="no"?>
<!DOCTYPE svg PUBLIC "-//W3C//DTD SVG 20010904//EN"
 "http://www.w3.org/TR/2001/REC-SVG-20010904/DTD/svg10.dtd">
<svg version="1.0" xmlns="http://www.w3.org/2000/svg"
 width="566.000000pt" height="363.000000pt" viewBox="0 0 566.000000 363.000000"
 preserveAspectRatio="xMidYMid meet">

<g transform="translate(0.000000,363.000000) scale(0.100000,-0.100000)"
fill="#000000" stroke="none">
<path d="M2574 3375 c-252 -37 -646 -169 -848 -285 -187 -107 -318 -232 -534
-510 -275 -354 -375 -558 -543 -1115 -57 -191 -97 -285 -166 -389 -77 -116
-269 -458 -380 -673 l-103 -202 0 -100 0 -101 2795 0 2794 0 -13 38 c-8 20
-34 89 -59 152 -24 63 -66 178 -92 255 -53 158 -138 367 -224 554 -32 69 -93
203 -136 296 -121 268 -217 441 -522 949 -278 462 -459 700 -646 849 -186 148
-367 224 -652 272 -127 22 -175 25 -363 24 -122 -1 -257 -7 -308 -14z m26 -59
c0 -9 -40 -13 -46 -5 -3 5 6 9 20 9 14 0 26 -2 26 -4z m578 -3 c-10 -2 -26 -2
-35 0 -10 3 -2 5 17 5 19 0 27 -2 18 -5z m-798 -47 c0 -11 -19 -15 -25 -6 -3
5 1 10 9 10 9 0 16 -2 16 -4z m1156 -36 c8 0 14 -4 14 -9 0 -12 -70 2 -97 20
-39 24 -25 29 23 9 25 -11 52 -20 60 -20z m-1256 0 c0 -5 -7 -10 -15 -10 -8 0
-15 5 -15 10 0 6 7 10 15 10 8 0 15 -4 15 -10z m960 -109 c0 -6 -17 -7 -37 -4
-52 8 -54 13 -5 13 23 0 42 -4 42 -9z m-1320 -11 c-8 -5 -19 -10 -25 -10 -5 0
-3 5 5 10 8 5 20 10 25 10 6 0 3 -5 -5 -10z m1317 -74 c279 -71 423 -154 639
-370 100 -100 160 -170 207 -241 119 -181 221 -422 247 -588 15 -94 9 -125
-28 -133 -34 -8 -301 -75 -587 -147 -121 -31 -348 -88 -505 -127 -157 -39
-371 -96 -476 -125 -168 -48 -409 -113 -544 -146 -120 -29 -120 -29 -120 -49
0 -38 39 -31 485 92 261 72 516 138 1155 298 525 132 611 152 616 147 8 -8
-29 -217 -52 -289 -31 -99 -96 -249 -134 -308 -94 -147 -324 -295 -595 -383
-86 -28 -329 -88 -435 -108 -88 -16 -571 -17 -725 0 -290 30 -439 61 -586 121
-411 170 -602 455 -519 774 28 107 64 183 147 308 51 78 76 128 92 185 24 82
104 304 148 412 50 120 200 301 338 404 94 71 167 115 330 199 120 61 120 61
300 89 258 39 405 36 602 -15z m439 -81 l39 -34 -57 30 c-62 33 -68 39 -40 39
10 0 36 -16 58 -35z m299 -17 c24 -24 30 -33 14 -23 -23 17 -65 65 -56 65 1 0
21 -19 42 -42z m-2325 28 c0 -2 -8 -10 -17 -17 -16 -13 -17 -12 -4 4 13 16 21
21 21 13z m-110 -94 c0 -4 -10 -13 -22 -21 -23 -14 -23 -14 -4 8 20 22 26 25
26 13z m2531 -39 c23 -35 26 -43 11 -29 -20 17 -56 76 -47 76 2 0 19 -21 36
-47z m-2141 -57 c0 -2 -8 -10 -17 -17 -16 -13 -17 -12 -4 4 13 16 21 21 21 13z
m1965 -16 c10 -11 16 -20 13 -20 -3 0 -13 9 -23 20 -10 11 -16 20 -13 20 3 0
13 -9 23 -20z m-2201 -240 c-30 -45 -38 -50 -29 -17 6 18 41 56 53 57 1 0 -10
-18 -24 -40z m-565 -140 c-12 -22 -25 -40 -30 -40 -5 0 3 18 17 40 15 22 28
40 30 40 2 0 -6 -18 -17 -40z m3301 -73 c0 -6 -9 -2 -20 8 -11 10 -17 22 -13
28 6 10 33 -19 33 -36z m-3370 -22 c-17 -25 -33 -45 -36 -45 -7 0 3 17 33 58
36 48 38 39 3 -13z m-189 -378 c-10 -9 -11 -8 -5 6 3 10 9 15 12 12 3 -3 0
-11 -7 -18z m3849 -78 c0 -6 -4 -7 -10 -4 -5 3 -10 11 -10 16 0 6 5 7 10 4 6
-3 10 -11 10 -16z m-3368 -71 c-7 -7 -12 -8 -12 -2 0 6 3 14 7 17 3 4 9 5 12
2 2 -3 -1 -11 -7 -17z m3045 -25 c-3 -10 -5 -2 -5 17 0 19 2 27 5 18 2 -10 2
-26 0 -35z m419 -80 c4 -13 10 -23 14 -23 4 0 10 -7 14 -15 4 -12 2 -13 -15
-2 -11 6 -27 33 -37 60 -9 26 -20 47 -24 47 -5 0 -8 8 -8 18 1 20 47 -51 56
-85z m-435 -174 c-9 -23 -10 -22 -10 11 -1 23 2 31 9 24 7 -7 7 -19 1 -35z
m-15 -117 c-11 -10 -15 4 -8 28 l7 25 3 -23 c2 -13 1 -26 -2 -30z m592 13 c-3
-3 -9 2 -12 12 -6 14 -5 15 5 6 7 -7 10 -15 7 -18z"/>
<path d="M3452 2064 c-19 -13 -22 -24 -20 -57 l3 -42 65 3 c51 3 69 8 83 24
25 30 23 74 -5 82 -42 11 -103 6 -126 -10z"/>
<path d="M2542 1807 c-8 -9 -12 -34 -10 -59 3 -43 3 -43 45 -46 22 -2 57 4 77
12 32 13 36 19 36 50 0 19 -4 37 -9 40 -5 4 -36 9 -68 12 -46 5 -61 3 -71 -9z"/>
<path d="M3425 1798 c-2 -7 -6 -41 -10 -75 -5 -57 -4 -63 13 -63 16 0 20 10
25 66 4 37 4 71 1 75 -8 13 -24 11 -29 -3z"/>
<path d="M2871 1606 c5 -20 110 -66 152 -66 19 0 27 5 27 18 0 20 -64 47 -139
58 -37 6 -43 5 -40 -10z"/>
</g>
</svg>
